<?xml version="1.0" standalone="no"?><!DOCTYPE svg PUBLIC "-//W3C//DTD SVG 1.1//EN" "http://www.w3.org/Graphics/SVG/1.1/DTD/svg11.dtd"><svg class="icon" width="200px" height="200.00px" viewBox="0 0 1024 1024" version="1.1" xmlns="http://www.w3.org/2000/svg"><path fill="#1296db" d="M939.314286 487.2c4.114286-13.714286 6.171429-27.885714 6.171428-42.285714 0-32.342857-10.628571-63.428571-29.828571-88.8 4.114286-13.714286 6.171429-27.885714 6.171428-42.285715 0-32.342857-10.628571-63.428571-29.828571-88.8 4.114286-13.714286 6.171429-27.885714 6.171429-42.285714 0-58.971429-35.085714-112.114286-89.485715-135.314286a75.542857 75.542857 0 0 0-30.285714-6.171428H238.857143v489.142857h0.342857l98.057143 355.2C353.028571 942.857143 405.6 982.857143 465.028571 982.857143c33.942857 0 65.6-13.485714 89.028572-38.171429 23.428571-24.571429 35.428571-56.8 33.714286-90.742857l-6.857143-140.457143h274.171428c13.828571 0 27.314286-3.657143 39.2-10.628571 46.171429-26.857143 74.857143-75.542857 74.857143-126.857143 0-32.342857-10.628571-63.428571-29.828571-88.8zM54.857143 77.714286v416c0 20.228571 16.342857 36.571429 36.571428 36.571428h74.285715V41.142857h-74.285715c-20.228571 0-36.571429 16.342857-36.571428 36.571429z" /></svg>