<svg id="大情绪icon" xmlns="http://www.w3.org/2000/svg" width="24.001" height="24" viewBox="0 0 24.001 24">
  <g id="正面" transform="translate(-672.167 -405.521)">
    <g id="smile-happy-m">
      <path id="路径_13593" data-name="路径 13593" d="M679.367,414.821a1.5,1.5,0,1,1,1.5,1.5A1.5,1.5,0,0,1,679.367,414.821Z" fill="#29b569"/>
      <path id="路径_13594" data-name="路径 13594" d="M687.467,413.321a1.5,1.5,0,1,0,1.5,1.5A1.5,1.5,0,0,0,687.467,413.321Z" fill="#29b569"/>
      <path id="路径_13595" data-name="路径 13595" d="M684.167,405.521a12,12,0,1,0,12,12A12,12,0,0,0,684.167,405.521Zm-9.6,12a9.6,9.6,0,1,1,9.6,9.6h0A9.6,9.6,0,0,1,674.567,417.521Z" fill="#29b569" fill-rule="evenodd"/>
    </g>
  </g>
  <g id="负面" transform="translate(-620.999 -390.083)">
    <path id="路径_13596" data-name="路径 13596" d="M633,405.533a4.8,4.8,0,0,0-4.225,2.522l-2.111-1.142a7.2,7.2,0,0,1,12.674,0l-2.111,1.142A4.8,4.8,0,0,0,633,405.533Z" fill="#ef5858"/>
    <path id="路径_13597" data-name="路径 13597" d="M628.2,399.383a1.5,1.5,0,1,1,1.5,1.5A1.5,1.5,0,0,1,628.2,399.383Z" fill="#ef5858"/>
    <path id="路径_13598" data-name="路径 13598" d="M636.3,397.883a1.5,1.5,0,1,0,1.5,1.5A1.5,1.5,0,0,0,636.3,397.883Z" fill="#ef5858"/>
    <path id="路径_13599" data-name="路径 13599" d="M633,390.083a12,12,0,1,0,12,12A12,12,0,0,0,633,390.083Zm-9.6,12a9.6,9.6,0,1,1,9.6,9.6h0A9.6,9.6,0,0,1,623.4,402.083Z" fill="#ef5858" fill-rule="evenodd"/>
  </g>
</svg>
