<?xml version="1.0" standalone="no"?><!DOCTYPE svg PUBLIC "-//W3C//DTD SVG 1.1//EN" "http://www.w3.org/Graphics/SVG/1.1/DTD/svg11.dtd"><svg class="icon" width="200px" height="200.00px" viewBox="0 0 1024 1024" version="1.1" xmlns="http://www.w3.org/2000/svg"><path d="M948.8 392L534.4 9.6c-12.8-11.2-30.4-11.2-43.2 0l-416 382.4c-9.6 9.6-12.8 22.4-8 35.2 4.8 12.8 16 20.8 30.4 20.8l222.4-1.6V864c0 17.6 14.4 32 32 32h320c17.6 0 32-14.4 32-32V673.6c0-17.6-14.4-32-32-32s-32 14.4-32 32V832H384V414.4c0-8-3.2-16-9.6-22.4-6.4-6.4-14.4-9.6-22.4-9.6H179.2L512 76.8 844.8 384H672c-8 0-16 3.2-22.4 9.6-6.4 6.4-9.6 14.4-9.6 22.4v62.4c0 17.6 14.4 32 32 32s32-14.4 32-32V448h222.4c12.8 0 25.6-8 30.4-20.8 4.8-11.2 1.6-25.6-8-35.2zM800 960H224c-17.6 0-32 14.4-32 32s14.4 32 32 32h576c17.6 0 32-14.4 32-32s-14.4-32-32-32z" fill="#211B13" /><path d="M448 480v192c0 17.6 14.4 32 32 32s32-14.4 32-32V480c0-17.6-14.4-32-32-32s-32 14.4-32 32z" fill="#FFB243" /></svg>